<?xml version="1.0" encoding="UTF-8"?>
<svg id="Camada_2" data-name="Camada 2" xmlns="http://www.w3.org/2000/svg" viewBox="0 0 239.28 138.05">
  <g id="Camada_1-2" data-name="Camada 1">
    <g>
      <path d="M165.36,138c-20.51-2.04-15.88-33,3.9-29.41,1.87.34,8.31,3.12,8.59,5.1.05.34-.78,3.41-.96,3.59-.45.43-.39,0-.55-.19-.41-.49-.59-1.18-.94-1.69-3.47-5.03-9.04-8.5-15-4.99-3.82,2.25-5.28,6.59-5.6,10.82,5.08-.21,10.12-.72,15.12-1.68v3.59c-5.01-.75-10.03-1.68-15.12-1.44-.31,9.31,8.2,17.7,17.65,14.39,4.06-1.42,5.44-4.11,6.77-7.87.14-.39-.12-.64.54-.52-.32,4.13-3.7,7.75-7.44,9.22-1.13.44-3.15.98-4.32,1.08-.72.07-1.92.07-2.64,0Z" fill="#5a5d36"/>
      <path d="M239.28,137.28v.48h-5.04c.45-1.18.08-2.32-.21-3.5-1.04-4.29-3.51-7.85-7.71-9.43,1.83.14,2.98.79,4.33,2.03.47.43.73,1.37,1.43,1.45l-5.87-16.18-4.44,12.82c1.18-.33,1.97-.63,3.24-.6.46,0,.97-.23.83.48-1.82-.04-3.62-.07-4.61,1.75-.62,1.14-2.59,7.19-2.77,8.5-.07.51-.18,1.37-.03,1.83s.91.18.69.86h-3.6c-.08-.68.64-.53,1.17-1.11,1.88-2.1,6.27-16.44,7.48-20.09.39-1.18,1.8-4.64,1.85-5.55.02-.42-.96-2.43-.53-2.48.73.13,2.69-.28,3.12.24,2.77,7.62,5.03,15.47,7.86,23.06.55,1.48,1.17,3.42,1.97,4.74.22.37.28.74.85.71Z" fill="#5a5d36"/>
      <path d="M0,108.77c1.57-.52,3.4-.12,5.04-.24-.46,1.62.1,3.27.55,4.84,1.64,5.75,4.56,14.77,6.95,20.14.15.33.24.79.66.89l7.37-21.99c.21-.75.59-2.29.18-2.93-.17-.28-.84-.11-.59-.95h3.6l-1.87,2.32c-3.2,7.96-5.61,16.22-8.59,24.27l.5,2.64c-.73-.13-2.69.28-3.12-.24-3.15-8.11-5.3-16.96-8.58-24.98-.5-1.23-.92-2.8-2.1-3.53v-.24Z" fill="#5a5d36"/>
      <path d="M87.77,70.62c-.13.13-1.17.03-.32.28,12.76-4.13,26.62-1.34,38.3,4.57.72-4.83,5.63-8.17,10.42-7.64.98.11,4.11,1.04,4.42,2.06.51,1.72-1.3,4.78-2.29,6.18,1.2,1,3.48,4.41,3.03,5.94-.33,1.12-4.94,2.88-6.2,2.57.55,1.2-.71,6.04-1.84,6.43s-3.67-.58-4.72-1.2c-4.43-2.66-5.61-8.33-3.53-12.88-5.38-2.55-11.06-4.73-16.99-5.69-6.96-1.13-15.55-.93-22.05,2.04-2.23,1.02-2.93,2.71-4.51,4.36-8.01,8.32-18.63,16.5-30.74,17.02-1.27.05-1.43-1.19-.84-1.58.37-.25,3.97-.48,4.86-.66,11.67-2.24,21.9-11.09,28.95-20.23-.7-4.71-.56-9.3.39-13.97.42-2.05,1.22-4,1.58-6.06-7.45-3.61-12.8-9.51-12.27-18.26.06-.96.7-5.12,1.45-5.51s2.33.85,3,1.33c3.15,2.3,5.93,6.67,7.53,10.21l2.67,7.03c.17-1.35,1.72-2.75,1.91-3.97.26-1.68-.1-3.94.02-5.73.7-10.52,6.87-19.48,15.92-24.6,1.82-1.03,9.34-4.59,11.05-4,.46.16.6,1.72.64,2.24,1.43,17.99-9.16,30.58-26.55,33.89-.75,1.26-1.46,2.59-2.06,3.93-.71,1.58-2.13,4.9-2.36,6.51-.02.14-.07.39.12.36,4.51-5.24,11.05-9.05,18.21-7.88.82.13,3.43.6,3.45,1.56.01.73-3.04,3.64-3.78,4.28-5.35,4.65-12.32,7.5-19.44,7.78-.18,3.02-.56,6.12.12,9.1,7.92-7.47,18.17-12.17,28.2-16.17.63-4.04,3.66-7.16,6.88-9.42.66-.46,3.68-2.01,3.81-2.19.33-.47-.69-4.47-.82-5.43-1.09-8.38-.66-16.85,1.82-24.95.89-2.92,3.76-10.6,6.69-11.77s4.29,1.43,6.57,2.02c1.83.47,3.46-.49,5.17.83,2.62,2.02,1.88,7.49,4.58,9.82,3.45-2.55,8.43-2.85,11.39.6,2.13,2.48.77,4.06,4.71,5.84,4.57,2.06,7,.46,11.18,1.05,6,.86,1.18,6.41.91,9.64-.42,5.08,3.66,11.69,3.06,15.27-.1.62-.92,1.88-.87,2.18.12.63,5.13,5.47,5.96,6.51s1.74,2.58,1.9,3.85c.15,1.15-.2,2.64.13,3.71.45,1.46,4.4,3.29,2.4,5.72-1.08,1.32-6.06,2.55-7.83,2.96-17.47,4.1-35.24.6-47.89-12.49-6.4-.28-13.22.76-19.13-2.21-8.87,3.7-18.45,7.74-25.81,14.03-.31.27-.35.55-.56.76ZM136.77,3.38c-.1-.15-2.83-1.43-3.24-1.46-2.21-.14-3.88,3.6-4.69,5.34-4.37,9.39-5,20.18-3.8,30.35l1.03-8.19c.69-3.2,1.24-6.44,2.16-9.58.35-1.18,1.12-5.22,2.56-2.71-2.63,8.05-4.21,16.54-4.06,25.05.48-.09.39-.51.48-.84,2.16-8.21,4.23-14.63,8.27-22.17.63-1.17,2.24-4.35,2.99-5.16.49-.52.84-.31,1.43-.08.41.58-2.73,5.49-3.22,6.44-3.31,6.4-6.07,13.11-7.79,20.13.62.12.42-.13.6-.47,1.24-2.31,2.2-4.74,3.53-7.03,3.87-6.71,8.77-12.73,13.85-18.54-.53-1.3-1.55-2.4-2.08-3.84-.58-1.55-.68-3.36-1.36-4.87-1.12-2.47-2.93-1.24-5.14-1.4l-4,10.02c-.83.99-1.69.6-1.45-.71.47-2.63,3.05-6.6,3.87-9.33.08-.27.23-.71.08-.93ZM115.92,10.3c-13.55,3.37-25.08,15.09-24.12,29.71,1.77-2.75,3.64-5.44,5.65-8.01,2.4-3.07,5.06-6.22,7.79-9,.56-.57,4.39-4.29,4.69-4.42.96-.43,1.45-.11,1.4.91-7.44,6.76-14.1,14.45-19.17,23.16,9.44-1.59,18.13-7.77,21.72-16.77,2.02-5.06,2.24-10.17,2.04-15.57ZM165.36,22.04l-4.08-2.27c-2.18-1.6-1.61-4.16-3.85-5.74-5.91-4.15-11.37,3.6-14.62,7.66-4.85,6.06-9.48,12.96-12.25,20.24.53.06.86-.7,1.19-1.09,4.68-5.43,9.87-10.49,15.49-14.96.83-.66,3.96-3.26,4.66-3.5.98-.33,1.27.65.85,1.34-.21.34-3.21,2.37-3.83,2.88-5.11,4.18-18.84,15.82-20.18,22.02-.31,1.43.49,1.7,1.76,2.1,9.29,2.93,24.77-3.79,33.41-7.5,1.34,0,1.57.86.41,1.62-2.36,1.54-8.4,3.62-11.26,4.57-6.41,2.13-13.32,3.77-20.11,3.53l4.08,2.27c9.91,5.27,20.37,1.77,30.06-2.09,3.22-1.29,10.93-4.53,10.75-8.67-.12-2.59-2.32-6.93-2.82-9.9-.26-1.53-.37-3.06-.31-4.61-3.06,2.24-6.23,4.47-9.75,5.96-.66.28-1.81.98-2.38.53-.69-.55-.28-1.02.29-1.42.99-.7,3.16-1.38,4.41-2.07,2.93-1.62,8.22-4.97,9.3-8.21.93-2.8-1.56-2.51-3.67-2.47-4.68.09-8.56,1.58-12.68,3.64-1.53.76-3.61,2.38-5.02,2.9-.35.13-1.12.41-1.4.04-.09-.28-.24-.5-.11-.81.21-.49,3.35-2.29,4.05-2.68,2.36-1.33,5.01-2.54,7.6-3.32ZM86.4,48.16c-.79-4.04-2.49-8.24-4.7-11.72-1.44-2.27-3.55-4.97-6.1-6.01-2.29,8.48,2.31,16.72,10.31,19.77-2.46-2.25-4.48-4.95-5.96-7.94-.44-.89-2.54-5.8-2.4-6.39.12-.47.69-.8,1.17-.54.41.22,1.79,4.38,2.19,5.25.94,2.04,2.62,5.02,4.16,6.63.19.19,1.09,1.22,1.32.95ZM130.44,42.17v.24c.16-.08.16-.16,0-.24ZM123.36,45.04c-.1-.1-1.4.45-1.45.64-.56,2.29.87,6.44,2.07,8.45,1.03,1.72,1.67,2.82,3.94,2.41.15-.13-1.52-2.36-1.72-2.71-1.56-2.72-2.6-5.64-2.84-8.79ZM125.52,46.24c-.13-.13-.51-.17-.43.3.43,2.51,1.4,4.72,2.73,6.86.89,1.43,1.98,3.64,3.94,3.13.19-.16-.47-.97-.62-1.17-.85-1.15-2.05-2.64-2.98-3.73-.36-.42-.99-.55-1.3-1.1-.42-.74-1.11-4.07-1.34-4.3ZM120.24,47.2c-3.14.9-1.44,7.78.63,8.83.82.42,1.6.26,2.49.27.17-.15-1.23-2.17-1.41-2.54-.97-2.04-1.57-4.3-1.71-6.56ZM106.08,49.6c-5.57-1.49-11.61.73-15.71,4.56-.55.51-1.36,1.13-1.45,1.91,1.76-.96,10-4.85,11.48-4.51.54.13.86.8.43,1.3-.24.28-6,2.06-7.07,2.53-2.44,1.06-5.13,2.5-7.11,4.28,7.52-.68,14.58-4.32,19.44-10.06ZM184.8,61.57v-3.47c0-1.42-2.59-3.72-3.46-4.7-.5-.57-3.61-4.22-3.9-4.27-5.92,4.63-13.74,7.28-20.97,9.21-5.68,1.51-9.34,1.92-15.12.24-.43-.12-4.78-1.94-4.8-1.44,7.75,5.19,16.59,6.74,25.68,4.55.91-.22,3.4-1.44,4.09-.97.4.32.18,1.09-.18,1.35-.56.4-3.14,1.06-3.96,1.26-5.69,1.4-12.05,1.26-17.66-.49-2.27-.71-4.29-1.94-6.54-2.7l5.06,3.69c11.15,7.07,25.02,8.08,37.71,5.1,1.04-.24,6.42-1.71,6.8-2.32.6-.96-1.85-3.35-2.7-3.55-2.84-.64-7.24.7-10.06,1.39-.75.03-1.38-.66-.83-1.34.4-.49,3.47-1.08,4.29-1.23,2.1-.37,4.44-.68,6.53-.31ZM117.12,50.55c-.33-.37-1.21,1.18-1.32,1.44-1.06,2.66-.02,3.37,2.52,3.83-.69-1.72-1.43-3.34-1.2-5.27ZM88.44,56.06v.24c.16-.08.16-.16,0-.24ZM138.92,70.47c-.16-.26-2.71-.95-3.2-.99-3.32-.27-7.35,1.83-8.04,5.27,1.74-.7,3.26-1.11,5.17-.97,1.02.08,3.79,1.21,4.04,1.16.69-.14,2.47-3.77,2.03-4.47ZM130.98,75.53c-.75.1-3.48.94-3.55,1.73-.11,1.26,1.9,3.59,2.9,4.3,2.15,1.5,5.53,1.82,7.9.73,1.87-.86,1.57-1.34.58-2.97-1.62-2.69-4.72-4.2-7.84-3.79ZM133.67,84.58c-2.46-.25-4.68-1.62-6.22-3.49-.54-.65-.78-1.53-1.44-2.03-.83,3.29.06,6.96,2.89,8.97.61.43,3.16,1.69,3.79,1.3.44-.27,1.27-4.45.98-4.74Z" fill="#5a5d36"/>
      <path d="M207.36,132.73v-20.01c0-.42-.51-2.15-.71-2.65-.23-.59-.88-.84-.73-1.54h3.36c-.76,2.06-1.29,3.89-1.44,6.11-.4,6.01.3,12.41-.01,18.46.2,1.44,2.63,3.18,3.13,4.66h-3.72c-6.6-8.3-13-16.78-19.8-24.92v19.29c0,.71.5,3.31.78,4.01s.78.95.9,1.62h-3.6c.16-.7.65-1.14.89-1.86.23-.67.48-1.87.54-2.57.59-6.65-.44-14.11.01-20.85-.2-1.5-2.26-2.46-2.41-3.94h3.48l18.61,23.59.71.61Z" fill="#5a5d36"/>
      <path d="M109.2,121.95v13.78c0,.7.86,1.39.96,2.04h-4.8c0-.57.51-.79.67-1.37.91-3.23.6-20.04.3-24.15-.09-1.29-.36-2.33-.97-3.46l8.05-.73c2.55.35,5.14.24,7.55,1.33,5.09,2.3,5.09,8.97.09,11.35-.83.4-3.71,1.23-4.53,1.23h-7.32ZM109.2,121.47h6.12c.56,0,2.8-.83,3.4-1.15,4.22-2.26,3.92-8.65-.4-10.7-2.94-1.39-6-.93-9.12-.84v12.7Z" fill="#5a5d36"/>
      <path d="M76.08,124.82c-1.82-.04-3.62-.07-4.61,1.75-.62,1.14-2.59,7.19-2.77,8.5-.07.51-.18,1.37-.03,1.83s.91.18.69.86h-3.6c-.08-.68.64-.53,1.17-1.11,1.88-2.11,6.32-16.6,7.54-20.26.38-1.15,1.74-4.48,1.79-5.37.04-.74-.75-1.66-.65-2.48l3.13.11,9.38,26.81,1.41,2.31h-5.04c.45-1.18.08-2.32-.21-3.5-1.04-4.28-3.5-7.85-7.71-9.43,1.83.14,2.98.79,4.33,2.03.47.43.73,1.37,1.43,1.45l-5.87-16.18-4.44,12.82c1.18-.35,1.98-.6,3.24-.6.46,0,.97-.22.83.48Z" fill="#5a5d36"/>
      <path d="M42.48,108.53c-.08,1.28.06,2.55.41,3.78l7.51,22.09.49-.59c1.83-7.05,5.66-14.45,7.31-21.45.17-.73.6-2.29.23-2.88-.18-.28-.84-.11-.59-.95h3.36c.11.88-.84,1.04-1.4,1.84-.4.58-.9,1.73-1.18,2.41-2.94,7.1-4.73,15.13-7.69,22.29l.43,2.69-2.97.02-9.22-26.53-1.48-2.71h4.8Z" fill="#5a5d36"/>
      <path d="M143.04,137.76c-4.64,0-9.28,0-13.92,0-.17-.66.35-.34.55-.77.24-.51.39-1.17.42-1.73-.54-7.73.69-16.36,0-23.98-.1-1.09-.6-1.72-.73-2.75h4.44c.07,0,.24.28.36.36.15.5-.38.24-.56.64-.06.13-.4,1.43-.4,1.51v26.23h5.64c.86,0,3.57-.89,4.5-1.25.6-.23,3.82-2.06,4.02-1.86-.13,1.15.3,2.57-.24,3.59h-4.08Z" fill="#5a5d36"/>
      <path d="M33.12,108.77c-.66.81-.88,1.71-.97,2.75-.68,7.88.28,17.16.31,25.1l.66,1.14h-4.8c0-.57.5-.79.66-1.38s.27-1.68.31-2.33c.26-4.06.59-21.05-.36-24.1-.14-.46-.68-.67-.61-1.19h4.8Z" fill="#5a5d36"/>
      <path d="M192.24,95.83v-5.15c0-.05-.26-.98-.29-1.02-.31-.43-1.5.11-1.15-1.01h3.6c.44,1.12-1.44.55-1.44,1.56v8.51l-1.07-.24-5.65-7.42v6.59c0,.52,1.67,0,1.2,1.08h-3.6c.18-1.24,1.21-.07,1.42-1.58.19-1.42.21-5.28.04-6.7-.18-1.53-1.72-.46-1.45-1.78,4.33-.69,5.65,4.86,8.4,7.19Z" fill="#5a5d36"/>
      <path d="M156.48,92.24c-.15-.21,1.66-3.08-1.08-3.14-3.85-.08-4.3,6.74-1.55,8.52,1.72,1.11,3.41.67,4.43-1.07,1.48.46-.23,1.8-.99,2.13-3.06,1.34-6.76-.5-7.07-3.92-.36-3.98,1.67-6.81,5.89-6.36,1.68.18,3.69,1.55,2.39,3.35-.54.74-1.23.81-2.03.48Z" fill="#5a5d36"/>
      <path d="M213.61,92.23c-.37-.53.69-.83.7-1.56.03-2.01-2.66-1.88-3.83-.7-2.74,2.77-.49,10,3.67,7.97.75-.37,1.66-2.24,2.09-.79-1.07,1.22-1.83,1.92-3.55,1.97-7.58.21-7.02-12.16,1.16-10.61,1.68.32,2.83,1.4,1.97,3.19-.33.69-1.92.96-2.22.52Z" fill="#5a5d36"/>
      <path d="M219.6,98.71c-.25-1.18.58-.36,1.18-1.1.33-.41,2.94-6.56,3.09-7.23.31-1.37-1.04-.52-1.15-1.73,1.3-.09,2.33-.09,3.08,1.11,1.26,2.01,1.97,5.66,3.17,7.85.54.74,1.44-.09,1.18,1.1h-4.32v-.72s1.2,0,1.2,0c.15-2.8-1.99-2.67-4.21-2.41-.66.08-.99,2.27-.83,2.41.11.1,1.61-.29,1.44.72h-3.84ZM226.08,94.87l-1.68-4.07-1.44,4.07h3.12Z" fill="#5a5d36"/>
      <path d="M167.52,88.65c.26,1.12-.62.52-1.21,1.12.38,1.95-.49,6.19.04,7.83.19.58,2.41.5,2.92.35.82-.24.76-1.53,1.12-1.76,1.52-1,.87,1.84.37,2.53h-7.56c-.23-1.14.44-.48.96-.83.68-.45.67-7.58.19-8.22-.32-.43-1.5.11-1.15-1.01h4.32Z" fill="#5a5d36"/>
      <path d="M203.04,88.65c.27,1.32-1.27.26-1.45,1.78-.11.91-.06,7.32.29,7.53.25.15.84-.02,1.17.03v.72h-4.56c-.25-1.14.51-.47,1.1-.93.38-.29.31-.68.35-1.09.12-1.23.19-5.38-.01-6.48s-1.79-.34-1.44-1.56h4.56Z" fill="#5a5d36"/>
      <path d="M179.52,88.65c.35,1.12-.83.58-1.15,1.01-.48.64-.49,7.77.19,8.22.53.35,1.2-.31.96.83h-4.32c-.23-1.14.44-.48.96-.83.68-.45.67-7.58.19-8.22-.32-.43-1.5.11-1.15-1.01h4.32Z" fill="#5a5d36"/>
      <path d="M179.76,85.29c.82,1.14-2.49,2.77-2.88,2.39-.31-.92,2.46-2.83,2.88-2.39Z" fill="#5a5d36"/>
      <path d="M163.62,28.56c.82-.17,1.55.05,1.24,1-.14.41-6.48,3.67-7.49,4.27-3.36,2.02-6.62,4.24-9.84,6.47-.67.46-2.47,2.39-3.18,1.41-.2-.33-.14-.64.02-.97.22-.46,4.31-3.25,5.08-3.79,2.52-1.74,5.27-3.5,7.92-5.03,1.26-.73,5.13-3.12,6.25-3.35Z" fill="#5a5d36"/>
    </g>
  </g>
</svg>