<?xml version="1.0" encoding="UTF-8"?>
<svg id="Camada_2" data-name="Camada 2" xmlns="http://www.w3.org/2000/svg" viewBox="0 0 127.44 93.84">
  <g id="Camada_1-2" data-name="Camada 1">
    <g>
      <path d="M71.76,0c1.38.43,3.03,1.96,4.31,2.29,1.9.49,3.55-.54,5.3.94,2.43,2.08,1.8,7.43,4.45,9.72,3.15-2.28,7.38-2.84,10.55-.24,2.92,2.39,1.3,4.87,5.71,6.77s6.75.44,10.82.94c6.31.78,1.39,6.36,1.11,9.7-.42,5.08,3.66,11.71,3.06,15.3-.1.62-.92,1.89-.87,2.18.12.63,5.13,5.48,5.96,6.52,2.65,3.3,1.25,4.19,1.98,7.38.44,1.94,5.77,4.07,1.16,6.78-2.66,1.56-9.01,2.76-12.17,3.19-15.87,2.17-31.01-2.03-42.25-13.59-5.29-.32-11.34.55-16.44-1.08-.65-.21-2.3-1.16-2.69-1.14-.63.03-4.87,1.95-5.82,2.36-7.37,3.2-15.08,7.29-20.96,12.76,12.76-4.14,26.71-1.37,38.4,4.56.98-5.42,6.23-8.59,11.57-7.37s3.01,4.56.97,7.97c1.2,1.01,3.48,4.42,3.03,5.95-.33,1.13-4.94,2.89-6.2,2.57.51,1.22-.63,5.77-1.68,6.36-1.51.84-5.06-1.1-6.24-2.15-3.45-3.09-3.91-7.75-2.16-11.87-3.79-1.8-7.64-3.41-11.71-4.5-7.91-2.13-15.82-2.67-23.76-.37-5.33,1.55-4.74,2.1-8.21,5.71-5.47,5.68-11.64,10.91-18.97,14.03v-1.92c3.95-1.55,7.87-4.27,11.15-6.97,1.79-1.47,9.94-9.15,10.21-10.93.13-.86-.43-2.61-.48-3.58-.15-3.37.15-6.91.83-10.21.42-2.06,1.26-4,1.58-6.07-8.62-3.9-14.79-12.62-11.52-22.34.87-2.58,1.96-1.4,3.7-.13,3.09,2.26,5.76,6.45,7.37,9.91l2.83,7.36c.17-1.35,1.72-2.76,1.91-3.97.25-1.61-.09-3.79.02-5.5.67-10.65,6.75-19.69,15.92-24.88,1.81-1.03,9.35-4.59,11.05-4.01.44.15.6,1.93.64,2.48,1.31,17.92-9.26,30.42-26.55,33.71-1.55,3.02-3.74,6.92-4.39,10.25-.06.31.02.46.33.33.53-.23,2.41-2.51,3.13-3.11,4.08-3.42,9.5-5.4,14.85-4.54.79.13,3.43.61,3.45,1.57.02.75-3.15,3.75-3.91,4.4-5.34,4.61-12.24,7.35-19.3,7.7-.26,3.02-.53,6.12.11,9.11,7.92-7.49,18.17-12.18,28.2-16.2.61-3.99,3.69-7.21,6.88-9.44.65-.46,3.69-2.02,3.8-2.2.35-.56-.44-3.14-.57-4-1.56-10.66-.93-21.95,3.6-31.85,1.15-2.51,2.57-5.2,5.01-6.63h1.92ZM74.37,3.15c-.1-.15-2.83-1.44-3.24-1.46-2.21-.14-3.88,3.61-4.69,5.35-4.27,9.19-5.05,19.96-3.8,29.92l1.03-7.73c.94-3.71,1.38-8.1,2.74-11.66.45-1.18,1.16-2.38,1.98-.66-2.58,7.92-4.15,16.25-4.07,24.61.73.12.38-.19.48-.58,2.08-8.01,4.34-14.66,8.27-21.98.63-1.17,2.24-4.36,2.99-5.17.49-.52.84-.31,1.43-.08.41.58-2.73,5.5-3.22,6.45-3.22,6.24-6.19,13-7.55,19.93.37-.06.45-.45.59-.72,1.09-2.14,2-4.3,3.2-6.4,3.88-6.78,8.82-12.86,13.94-18.73-.53-1.3-1.55-2.4-2.08-3.85-.58-1.56-.68-3.36-1.36-4.88-1.12-2.47-2.93-1.25-5.14-1.4l-4,10.04c-.83.99-1.69.6-1.45-.71.47-2.64,3.05-6.61,3.87-9.35.08-.27.23-.71.08-.94ZM53.52,10.08c-13.55,3.37-25.08,15.12-24.12,29.76,1.78-2.75,3.64-5.45,5.65-8.03,2.4-3.07,5.06-6.24,7.79-9.01.56-.57,4.39-4.3,4.69-4.43.96-.44,1.45-.11,1.4.91-7.44,6.78-14.1,14.48-19.17,23.2,9.45-1.61,18.12-7.77,21.72-16.8,2.02-5.07,2.24-10.19,2.04-15.6ZM102.96,21.84c.18-.23-2.45-1.2-2.8-1.4-3.7-2.09-2.71-5.62-6.02-7.18-5.76-2.71-10.6,4.32-13.73,8.22-4.86,6.07-9.48,12.98-12.25,20.27.53.06.86-.7,1.19-1.09,4.68-5.45,9.87-10.49,15.49-14.98.73-.59,4.13-3.36,4.67-3.51.69-.2,1.11.59.94,1.19-6.03,4.85-12.41,9.76-17.62,15.52-1.62,1.79-6.9,8.18-6.6,10.43.16,1.2,3.85,1.74,4.92,1.82,10.06.74,21.31-4.17,30.37-8.06,1.34,0,1.57.86.41,1.62-2.36,1.54-8.4,3.63-11.26,4.58-6.42,2.14-13.31,3.76-20.11,3.53l3.91,2.2c9.98,5.36,20.45,1.89,30.23-2.03,3.22-1.29,10.93-4.53,10.75-8.69-.12-2.6-2.32-6.94-2.82-9.92-.26-1.53-.37-3.06-.31-4.61-3.06,2.25-6.23,4.47-9.75,5.97-.66.28-1.81.98-2.38.54-.69-.55-.28-1.02.29-1.42.99-.7,3.16-1.38,4.41-2.07,2.93-1.62,8.22-4.98,9.3-8.22.93-2.8-1.56-2.52-3.67-2.47-4.52.09-8.2,1.45-12.2,3.4-1.69.83-3.96,2.57-5.5,3.14-.35.13-1.12.41-1.4.04-.09-.28-.24-.5-.11-.81.21-.49,3.35-2.3,4.05-2.69,2.36-1.33,5.01-2.55,7.6-3.32ZM24,48c-.79-4.05-2.49-8.26-4.7-11.74-1.44-2.27-3.55-4.98-6.1-6.02-2.29,8.5,2.31,16.75,10.31,19.8-2.46-2.25-4.48-4.96-5.96-7.96-.53-1.08-2.38-5.31-2.38-6.26,0-.56.63-.96,1.15-.68.41.22,1.79,4.39,2.19,5.26.94,2.04,2.62,5.03,4.16,6.64.19.19,1.09,1.22,1.32.96ZM68.04,42v.24c.16-.08.16-.16,0-.24ZM60.96,44.88c-.1-.1-1.4.45-1.45.64-.56,2.29.87,6.45,2.07,8.46,1.03,1.73,1.67,2.83,3.94,2.42.15-.13-1.52-2.37-1.72-2.72-1.56-2.72-2.6-5.65-2.84-8.8ZM63.12,46.08c-.13-.13-.51-.17-.43.3.43,2.51,1.4,4.73,2.73,6.87.89,1.43,1.98,3.65,3.94,3.14.19-.16-.47-.97-.62-1.18-.85-1.15-2.05-2.64-2.98-3.74-.36-.42-.99-.55-1.3-1.1-.42-.74-1.11-4.08-1.34-4.3ZM57.84,47.04c-3.14.9-1.44,7.79.63,8.85.82.42,1.6.26,2.49.27.17-.15-1.23-2.18-1.41-2.55-.97-2.05-1.57-4.31-1.71-6.57ZM43.68,49.44c-5.57-1.49-11.61.74-15.71,4.56-.55.51-1.36,1.13-1.45,1.91,1.76-.96,10-4.86,11.48-4.52.54.13.86.8.43,1.3-.24.29-6,2.07-7.07,2.53-2.44,1.06-5.13,2.51-7.11,4.28,7.52-.69,14.58-4.33,19.44-10.08ZM122.4,61.44v-3.48c0-1.42-2.59-3.73-3.46-4.7-.5-.57-3.61-4.23-3.9-4.28-5.92,4.64-13.74,7.29-20.97,9.22-5.28,1.41-8.53,1.88-13.97.53-1.76-.44-3.41-1.33-4.97-1.75-.24-.06-.97-.25-.98.01,7.75,5.2,16.59,6.75,25.68,4.56.91-.22,3.4-1.44,4.09-.97.4.32.18,1.09-.18,1.35-.55.4-3.14,1.06-3.96,1.26-5.66,1.38-11.9,1.27-17.48-.44-2.12-.65-3.91-1.84-6-2.28,11.56,9.86,27.56,11.75,42.05,8.33,1.04-.24,6.42-1.72,6.8-2.33.6-.97-1.85-3.36-2.7-3.55-2.84-.64-7.24.7-10.06,1.39-2.66-1.08.16-1.79,1.5-2.13,2.63-.67,5.82-1.14,8.49-.75ZM54.72,50.4c-.33-.38-1.21,1.18-1.32,1.44-1.06,2.67-.02,3.38,2.52,3.84-.69-1.73-1.43-3.35-1.2-5.28ZM26.04,55.92v.24c.16-.08.16-.16,0-.24ZM76.53,70.35c-.15-.24-2.73-.95-3.21-.99-3.6-.28-7.03,1.92-8.28,5.28,1.91-.58,3.34-1.12,5.41-.97,1.02.08,3.79,1.21,4.04,1.16.71-.14,2.44-3.85,2.04-4.48ZM68.58,75.42c-.75.1-3.48.95-3.55,1.74-.11,1.27,1.9,3.6,2.9,4.3,2.15,1.51,5.53,1.82,7.9.73,1.87-.86,1.57-1.34.58-2.98-1.62-2.69-4.72-4.2-7.84-3.8ZM71.25,84.5c-2.5-.35-4.61-1.58-6.21-3.51-.54-.65-.78-1.53-1.44-2.03-.83,3.29.06,6.98,2.89,8.98.61.43,3.16,1.69,3.79,1.3.43-.27,1.32-4.33.97-4.74Z" fill="#5a5d36"/>
      <path d="M101.22,28.37c.82-.17,1.55.05,1.24,1-.14.41-6.48,3.67-7.49,4.28-3.36,2.03-6.62,4.25-9.84,6.48-.67.46-2.47,2.4-3.18,1.41-.2-.33-.14-.65.02-.97.19-.41,4.33-3.27,5.08-3.8,2.51-1.74,5.28-3.51,7.92-5.04,1.26-.73,5.13-3.13,6.25-3.36Z" fill="#5a5d36"/>
    </g>
  </g>
</svg>